<svg width="400" height="400" viewBox="0 0 400 400" fill="none" xmlns="http://www.w3.org/2000/svg">
<g clip-path="url(#clip0_146_248)">
<path d="M171.169 131.304C166.632 133.153 162.714 136.442 159.414 141.168H158.383L155.29 128.427H129.718V240.43H159.414V184.531C159.414 176.105 161.889 169.324 166.839 164.391C171.788 159.459 178.799 156.993 187.874 156.993H199.629V128.632H185.811C180.656 128.632 175.706 129.454 171.169 131.304Z" fill="#FAFAFA"/>
<path d="M78.16 198.934C76.7165 203.044 75.0665 206.332 72.5918 208.798C70.3235 211.47 67.4365 213.32 64.3429 214.553C61.2494 215.786 57.9498 216.402 54.6502 216.402C51.3505 216.402 48.0509 215.786 44.9575 214.553C41.8641 213.32 39.1831 211.47 36.7084 208.798C34.4399 206.127 32.5839 202.839 31.1403 198.934C29.6967 194.824 29.078 190.097 29.078 184.753C29.078 179.41 29.6967 174.478 31.1403 170.573C32.5839 166.463 34.2337 163.175 36.7084 160.709C38.9769 158.037 41.8641 156.188 44.9575 154.955C48.0509 153.722 51.3505 153.105 54.6502 153.105C57.9498 153.105 61.2494 153.722 64.3429 154.955C67.4365 156.188 70.1171 158.037 72.5918 160.709C74.8606 163.381 76.7165 166.669 78.16 170.573C79.6035 174.684 80.2224 179.41 80.2224 184.753C80.2224 190.097 79.3976 194.824 78.16 198.934ZM81.2535 141.391H80.2224C78.5723 139.541 76.9229 137.692 74.8606 136.048C72.7982 134.198 70.5294 132.76 68.0547 131.321C65.58 129.882 62.6929 128.855 59.3935 128.033C56.0938 127.211 52.5879 126.8 48.6696 126.8C41.4516 126.8 34.8524 128.033 28.8718 130.499C22.8912 132.965 17.7355 136.664 13.611 141.596C9.28023 146.529 5.98059 152.694 3.50586 159.887C1.03114 167.08 0 175.506 0 184.959C0 194.618 1.23736 202.839 3.50586 210.031C5.98059 217.225 9.28023 223.184 13.611 228.116C17.9418 233.049 23.0974 236.748 28.8718 239.214C34.8524 241.68 41.4516 242.913 48.6696 242.913C52.5879 242.913 56.3 242.502 59.3935 241.68C62.6929 240.858 65.58 239.625 68.0547 238.392C70.5294 236.953 72.7982 235.31 74.8606 233.665C76.9229 231.815 78.7788 230.172 80.2224 228.322H81.2535L84.3471 241.064H109.713V128.649H84.3471L81.2535 141.391Z" fill="#FAFAFA"/>
<path d="M247.902 102.128H221.918L218.206 128.639V156.177V207.966C218.206 218.447 221.093 226.667 226.867 232.216C232.642 237.765 241.509 240.642 253.058 240.642H274.299V213.104H258.42C255.121 213.104 252.646 212.076 250.584 210.226C248.727 208.377 247.696 205.705 247.696 202.417V155.971H274.093V128.639H247.696V102.128H247.902Z" fill="#FAFAFA"/>
<path d="M365.41 198.923C363.966 203.033 362.316 206.322 359.842 208.788C357.573 211.46 354.892 213.309 351.593 214.542C348.499 215.775 345.199 216.391 341.9 216.391C338.601 216.391 335.301 215.775 332.207 214.542C329.114 213.309 326.433 211.46 323.958 208.788C321.69 206.116 319.834 202.828 318.39 198.923C316.946 194.813 316.328 190.086 316.328 184.743C316.328 179.4 316.946 174.467 318.39 170.563C319.834 166.453 321.484 163.164 323.958 160.698C326.226 158.027 328.908 156.177 332.207 154.944C335.301 153.711 338.601 153.094 341.9 153.094C345.199 153.094 348.499 153.711 351.593 154.944C354.686 156.177 357.367 158.027 359.842 160.698C362.11 163.37 363.966 166.658 365.41 170.563C366.854 174.673 367.472 179.4 367.472 184.743C367.472 190.086 366.854 194.813 365.41 198.923ZM367.472 102.128V140.147H366.441C365.41 138.914 363.966 137.475 362.11 135.831C360.461 134.187 358.192 132.749 355.717 131.31C353.242 129.872 350.149 128.844 346.849 127.816C343.55 126.994 339.838 126.378 335.507 126.378C328.289 126.378 321.69 127.611 315.709 130.077C309.729 132.543 304.573 136.242 300.242 141.175C295.911 146.107 292.612 152.272 290.137 159.465C287.662 166.658 286.631 175.084 286.631 184.538C286.631 194.197 287.868 202.417 290.137 209.61C292.612 216.803 295.911 222.763 300.242 227.694C304.573 232.627 309.729 236.326 315.709 238.792C321.69 241.258 328.289 242.491 335.507 242.491C339.425 242.491 343.137 242.08 346.231 241.258C349.531 240.436 352.418 239.203 354.892 237.97C357.367 236.532 359.635 234.888 361.698 233.244C363.76 231.394 365.616 229.75 367.059 227.9H368.091L371.184 240.642H396.55V102.128H367.472Z" fill="#FAFAFA"/>
<path d="M327.892 274.565C327.892 282.785 334.492 289.362 342.947 289.362C351.196 289.362 357.795 282.991 357.795 274.565C357.795 266.345 351.402 259.768 342.947 259.768C334.492 259.974 327.892 266.345 327.892 274.565Z" fill="#FAFAFA"/>
</g>
<defs>
<clipPath id="clip0_146_248">
<rect width="400" height="187.234" fill="white" transform="translate(0 102.128)"/>
</clipPath>
</defs>
</svg>
